<svg width="1220" height="656" viewBox="0 0 1220 656" fill="none" xmlns="http://www.w3.org/2000/svg">
<g clip-path="url(#clip0_41_1192)">
<rect width="1220" height="656" fill="white"/>
<rect width="1220" height="655" fill="#D5E8FF" fill-opacity="0.7"/>
<path d="M218.659 130.388C226.394 145.156 218.906 166.283 214.196 175H-40.1792C-49.3526 167.308 -66.063 145.31 -59.5177 118.851C-52.9724 92.3914 -27.039 82.6999 -14.8904 81.1616C-10.4277 40.3957 11.1421 24.2432 28.2492 18.0898C45.3563 11.9365 66.9262 10.3982 92.2149 30.3965C112.446 46.3952 117.504 70.906 117.504 81.1616C140.115 81.1616 152.214 101.673 155.437 111.928C158.164 109.108 166.742 103.467 179.238 103.467C194.858 103.467 208.989 111.928 218.659 130.388Z" fill="white" fill-opacity="0.5"/>
<path d="M668.659 538.388C676.394 553.156 668.906 574.283 664.196 583H409.821C400.647 575.308 383.937 553.31 390.482 526.851C397.028 500.391 422.961 490.7 435.11 489.162C439.572 448.396 461.142 432.243 478.249 426.09C495.356 419.936 516.926 418.398 542.215 438.397C562.446 454.395 567.504 478.906 567.504 489.162C590.115 489.162 602.214 509.673 605.437 519.928C608.164 517.108 616.742 511.467 629.238 511.467C644.858 511.467 658.989 519.928 668.659 538.388Z" fill="white" fill-opacity="0.5"/>
<path d="M1236.66 249.388C1244.39 264.156 1236.91 285.283 1232.2 294H977.821C968.647 286.308 951.937 264.31 958.482 237.851C965.028 211.391 990.961 201.7 1003.11 200.162C1007.57 159.396 1029.14 143.243 1046.25 137.09C1063.36 130.936 1084.93 129.398 1110.21 149.397C1130.45 165.395 1135.5 189.906 1135.5 200.162C1158.11 200.162 1170.21 220.673 1173.44 230.928C1176.16 228.108 1184.74 222.467 1197.24 222.467C1212.86 222.467 1226.99 230.928 1236.66 249.388Z" fill="white" fill-opacity="0.5"/>
<g filter="url(#filter0_d_41_1192)">
<path d="M235.206 238.168C200.776 256.613 188.326 285.561 186.404 297.73L330.505 326.55L362.015 317.712C361.631 296.961 350.487 274.29 338.575 260.456C319.383 238.168 278.245 215.112 235.206 238.168Z" fill="url(#paint0_linear_41_1192)"/>
<path d="M164.117 368.82H138.371C134.682 368.82 166.806 360.622 183.33 356.523L228.29 363.825L252.114 405.326H303.991L314.366 385.728C310.011 380.86 300.532 373.124 297.458 381.117C293.615 391.108 281.703 387.649 270.559 387.649C261.644 387.649 259.672 385.344 259.8 384.191L252.114 368.82L285.161 358.829L397.368 375.353C401.211 379.451 407.436 388.418 401.595 391.492C395.754 394.566 391.988 392.773 390.835 391.492L381.997 381.117L331.274 387.649L316.671 412.627L331.274 437.988L362.015 444.137C363.552 445.161 366.473 448.287 365.858 452.591C365.243 456.895 360.99 458.483 358.941 458.739L341.649 456.049L352.793 475.647C354.202 477.824 355.79 483.025 350.871 486.406C345.953 489.788 341.393 486.022 339.728 483.716L328.199 463.735C326.79 467.193 323.896 474.417 323.588 475.647C323.204 477.184 319.746 484.101 312.829 482.179C307.295 480.642 307.449 474.622 308.217 471.804L317.44 445.674L303.991 421.081L252.114 419.928L237.128 445.674L245.966 468.73C247.759 472.317 249.885 480.028 244.045 482.179C238.204 484.331 234.438 481.283 233.285 479.49L227.521 463.735L217.146 482.179C215.224 484.997 210.152 489.788 205.233 486.406C200.315 483.025 201.647 477.824 202.928 475.647L214.072 456.049L199.469 458.739C196.908 459.123 191.477 458.432 190.247 452.591C189.017 446.75 193.577 444.009 196.011 443.368L224.447 437.988L238.665 412.627L214.072 368.82H184.483C179.487 374.968 169.035 387.726 167.191 389.571C164.885 391.876 159.89 395.335 154.894 391.108C150.898 387.726 152.46 383.294 153.741 381.501L164.117 368.82Z" fill="url(#paint1_linear_41_1192)"/>
<path d="M177.566 297.346C142.521 306.568 126.587 324.501 123 332.314C128.508 329.112 144.289 322.093 163.348 319.634C187.173 316.559 206.386 318.481 221.757 319.634C237.128 320.786 275.555 332.314 302.838 340.384C330.121 348.454 360.478 343.458 389.298 335.773C412.355 329.625 428.622 313.229 433.874 305.8C413.507 317.328 384.303 318.481 360.478 318.481C336.654 318.481 308.218 309.258 282.087 302.341C255.957 295.425 221.373 285.818 177.566 297.346Z" fill="#E6E6E6"/>
<path d="M177.566 340.37C142.521 349.593 126.587 367.525 123 375.339C128.508 372.137 144.289 365.117 163.348 362.658C187.173 359.584 206.386 361.505 221.757 362.658C237.128 363.811 275.555 375.339 302.838 383.408C330.121 391.478 360.478 386.483 389.298 378.797C412.355 372.649 428.622 356.253 433.874 348.824C413.507 360.352 384.303 361.505 360.478 361.505C336.654 361.505 308.218 352.283 282.087 345.366C255.957 338.449 221.373 328.842 177.566 340.37Z" fill="#E6E6E6"/>
<path d="M141.829 244.317L171.034 261.225" stroke="url(#paint2_linear_41_1192)" stroke-width="19" stroke-linecap="round"/>
<path d="M194.09 185.139L211.766 214.344" stroke="url(#paint3_linear_41_1192)" stroke-width="19" stroke-linecap="round"/>
<path d="M271.712 169L270.944 202.047" stroke="url(#paint4_linear_41_1192)" stroke-width="19" stroke-linecap="round"/>
<path d="M350.103 183.602L333.195 214.344" stroke="url(#paint5_linear_41_1192)" stroke-width="19" stroke-linecap="round"/>
<path d="M403.901 244.317L373.928 261.225" stroke="url(#paint6_linear_41_1192)" stroke-width="19" stroke-linecap="round"/>
</g>
<path d="M492.448 298.649L464 216.983H477.697L494.438 266.333C494.984 267.811 495.492 269.483 495.96 271.35C496.506 273.139 497.014 274.966 497.482 276.833C498.028 278.7 498.497 280.488 498.887 282.2C499.277 283.833 499.667 285.311 500.058 286.633L495.726 286.516C496.662 283.483 497.521 280.761 498.301 278.35C499.16 275.938 499.979 273.761 500.76 271.816C501.618 269.794 502.399 267.927 503.101 266.216L517.969 231.1H529.793L544.31 266.1C545.246 268.2 546.105 270.377 546.885 272.633C547.744 274.811 548.563 276.988 549.344 279.166C550.124 281.344 550.749 283.444 551.217 285.466L547.237 286.283C547.627 284.572 547.978 283.055 548.29 281.733C548.602 280.411 548.915 279.127 549.227 277.883C549.617 276.638 550.007 275.433 550.398 274.266C550.788 273.022 551.217 271.7 551.685 270.3C552.154 268.9 552.661 267.383 553.207 265.75L570.885 216.983H584.465L554.027 298.649H545.246L522.418 245.45L524.174 245.916L501.579 298.649H492.448Z" fill="black"/>
<path d="M610.726 298.649V237.4H622.784V298.649H610.726ZM616.58 223.167C614.004 223.167 612.014 222.505 610.609 221.183C609.204 219.861 608.502 217.994 608.502 215.583C608.502 213.328 609.204 211.5 610.609 210.1C612.092 208.7 614.082 208 616.58 208C619.155 208 621.145 208.661 622.55 209.983C623.955 211.306 624.657 213.172 624.657 215.583C624.657 217.839 623.916 219.667 622.433 221.067C621.028 222.467 619.077 223.167 616.58 223.167Z" fill="black"/>
<path d="M658.939 298.649V212.317H670.997V298.649H658.939Z" fill="black"/>
<path d="M730.767 299.816C724.133 299.816 718.28 298.455 713.207 295.733C708.212 293.011 704.31 289.238 701.5 284.416C698.768 279.594 697.403 274.111 697.403 267.966C697.403 261.744 698.846 256.261 701.734 251.516C704.622 246.694 708.602 242.922 713.675 240.2C718.748 237.478 724.524 236.117 731.002 236.117C734.904 236.117 738.572 236.622 742.006 237.633C745.44 238.644 748.445 240.005 751.021 241.716C753.674 243.428 755.703 245.255 757.108 247.2C758.591 249.144 759.332 251.089 759.332 253.033L755.82 253.266V212.317H767.879V298.649H755.82V282.783L758.162 283.25C758.162 285.116 757.381 287.022 755.82 288.966C754.338 290.833 752.308 292.622 749.733 294.333C747.235 295.966 744.309 297.288 740.953 298.299C737.675 299.311 734.28 299.816 730.767 299.816ZM732.992 289.083C737.596 289.083 741.655 288.15 745.167 286.283C748.679 284.416 751.411 281.888 753.362 278.7C755.313 275.511 756.289 271.933 756.289 267.966C756.289 264 755.313 260.422 753.362 257.233C751.411 254.044 748.679 251.555 745.167 249.766C741.655 247.9 737.596 246.966 732.992 246.966C728.465 246.966 724.446 247.9 720.934 249.766C717.421 251.555 714.651 254.044 712.622 257.233C710.67 260.422 709.695 264 709.695 267.966C709.695 271.933 710.67 275.511 712.622 278.7C714.651 281.888 717.421 284.416 720.934 286.283C724.446 288.15 728.465 289.083 732.992 289.083Z" fill="black"/>
<path d="M492.448 444.833L464 363.167H477.697L494.438 412.517C494.984 413.995 495.492 415.667 495.96 417.534C496.506 419.322 497.014 421.15 497.482 423.017C498.028 424.883 498.497 426.672 498.887 428.383C499.277 430.017 499.667 431.495 500.058 432.817L495.726 432.7C496.662 429.667 497.521 426.945 498.301 424.533C499.16 422.122 499.979 419.945 500.76 418C501.618 415.978 502.399 414.111 503.101 412.4L517.969 377.284H529.793L544.31 412.284C545.246 414.384 546.105 416.561 546.885 418.817C547.744 420.995 548.563 423.172 549.344 425.35C550.124 427.528 550.749 429.628 551.217 431.65L547.237 432.467C547.627 430.756 547.978 429.239 548.29 427.917C548.602 426.595 548.915 425.311 549.227 424.067C549.617 422.822 550.007 421.617 550.398 420.45C550.788 419.206 551.217 417.884 551.685 416.484C552.154 415.084 552.661 413.567 553.207 411.934L570.885 363.167H584.465L554.027 444.833H545.246L522.418 391.634L524.174 392.1L501.579 444.833H492.448Z" fill="black"/>
<path d="M636.436 446C629.099 446 622.582 444.678 616.885 442.033C611.188 439.311 606.739 435.617 603.539 430.95C600.339 426.206 598.739 420.839 598.739 414.85C598.739 409.872 599.676 405.4 601.549 401.434C603.422 397.389 606.037 393.967 609.393 391.167C612.749 388.289 616.651 386.073 621.1 384.517C625.548 382.962 630.309 382.184 635.382 382.184C639.987 382.184 644.318 382.923 648.377 384.4C652.435 385.878 655.986 387.939 659.03 390.584C662.074 393.228 664.415 396.378 666.054 400.034C667.693 403.611 668.474 407.578 668.396 411.934L668.279 417.767H608.924L606.232 408.2H657.859L656.103 409.484V406.684C655.791 404.039 654.621 401.706 652.591 399.684C650.562 397.661 648.026 396.106 644.982 395.017C642.016 393.85 638.816 393.267 635.382 393.267C630.543 393.267 626.251 394.006 622.504 395.484C618.758 396.884 615.831 399.139 613.724 402.25C611.695 405.284 610.68 409.211 610.68 414.034C610.68 418.234 611.812 421.928 614.075 425.117C616.417 428.228 619.656 430.639 623.792 432.35C628.007 434.061 632.807 434.917 638.192 434.917C643.109 434.917 647.284 434.256 650.718 432.933C654.23 431.533 657.352 429.822 660.084 427.8L665.703 436.667C663.596 438.378 660.942 439.933 657.742 441.333C654.62 442.733 651.186 443.861 647.44 444.717C643.772 445.572 640.104 446 636.436 446Z" fill="black"/>
<path d="M722.4 446C716.078 446 710.459 444.639 705.542 441.917C700.625 439.117 696.761 435.306 693.952 430.483C691.22 425.661 689.854 420.217 689.854 414.15C689.854 407.928 691.298 402.445 694.186 397.7C697.074 392.878 701.015 389.106 706.01 386.384C711.083 383.661 716.858 382.3 723.336 382.3C727.239 382.3 730.868 382.806 734.224 383.817C737.58 384.828 740.507 386.189 743.004 387.9C745.501 389.534 747.492 391.4 748.975 393.5C750.457 395.523 751.238 397.584 751.316 399.684L748.155 399.45V383.584H760.33V444.833H748.155V428.967L750.731 429.083C750.574 431.028 749.677 433.011 748.038 435.033C746.477 436.978 744.37 438.806 741.716 440.517C739.141 442.15 736.175 443.472 732.819 444.483C729.541 445.494 726.068 446 722.4 446ZM725.326 434.917C729.931 434.917 733.99 434.022 737.502 432.233C741.014 430.367 743.745 427.878 745.697 424.767C747.648 421.578 748.623 418.039 748.623 414.15C748.623 410.184 747.648 406.645 745.697 403.534C743.745 400.423 741.014 397.973 737.502 396.184C733.99 394.395 729.931 393.5 725.326 393.5C720.8 393.5 716.78 394.395 713.268 396.184C709.834 397.973 707.103 400.423 705.073 403.534C703.122 406.645 702.147 410.184 702.147 414.15C702.147 418.039 703.122 421.578 705.073 424.767C707.103 427.878 709.834 430.367 713.268 432.233C716.78 434.022 720.8 434.917 725.326 434.917Z" fill="black"/>
<path d="M803.538 444.833V365.967H815.596V444.833H803.538ZM786.797 395.25V383.584H835.147V395.25H786.797Z" fill="black"/>
<path d="M864.168 444.833V358.501H876.226V398.75L872.831 399.567C873.689 396.689 875.445 393.967 878.099 391.4C880.831 388.756 884.109 386.578 887.933 384.867C891.835 383.156 895.933 382.3 900.225 382.3C905.844 382.3 910.488 383.389 914.156 385.567C917.825 387.667 920.595 390.661 922.468 394.55C924.342 398.439 925.278 402.989 925.278 408.2V444.833H913.22V409.6C913.22 406.178 912.478 403.222 910.996 400.734C909.591 398.245 907.601 396.378 905.025 395.134C902.527 393.811 899.601 393.15 896.245 393.15C893.357 393.15 890.664 393.695 888.167 394.784C885.748 395.795 883.64 397.156 881.845 398.867C880.05 400.5 878.645 402.328 877.631 404.35C876.694 406.295 876.226 408.278 876.226 410.3V444.833H870.255C868.694 444.833 867.407 444.833 866.392 444.833C865.377 444.833 864.636 444.833 864.168 444.833Z" fill="black"/>
<path d="M990.846 446C983.51 446 976.993 444.678 971.296 442.033C965.598 439.311 961.15 435.617 957.95 430.95C954.75 426.206 953.15 420.839 953.15 414.85C953.15 409.872 954.086 405.4 955.96 401.434C957.833 397.389 960.447 393.967 963.803 391.167C967.159 388.289 971.062 386.073 975.51 384.517C979.959 382.962 984.72 382.184 989.793 382.184C994.397 382.184 998.729 382.923 1002.79 384.4C1006.85 385.878 1010.4 387.939 1013.44 390.584C1016.48 393.228 1018.83 396.378 1020.47 400.034C1022.1 403.611 1022.88 407.578 1022.81 411.934L1022.69 417.767H963.335L960.642 408.2H1012.27L1010.51 409.484V406.684C1010.2 404.039 1009.03 401.706 1007 399.684C1004.97 397.661 1002.44 396.106 999.392 395.017C996.427 393.85 993.227 393.267 989.793 393.267C984.954 393.267 980.661 394.006 976.915 395.484C973.169 396.884 970.242 399.139 968.135 402.25C966.106 405.284 965.091 409.211 965.091 414.034C965.091 418.234 966.223 421.928 968.486 425.117C970.827 428.228 974.066 430.639 978.203 432.35C982.417 434.061 987.217 434.917 992.602 434.917C997.519 434.917 1001.69 434.256 1005.13 432.933C1008.64 431.533 1011.76 429.822 1014.49 427.8L1020.11 436.667C1018.01 438.378 1015.35 439.933 1012.15 441.333C1009.03 442.733 1005.6 443.861 1001.85 444.717C998.183 445.572 994.515 446 990.846 446Z" fill="black"/>
<path d="M1052.58 444.833V383.584H1064.75V404.584L1062.29 402.134C1063.31 398.478 1065.06 395.173 1067.56 392.217C1070.14 389.184 1073.06 386.773 1076.34 384.984C1079.7 383.195 1083.17 382.3 1086.76 382.3C1088.95 382.3 1091.05 382.534 1093.08 383C1095.19 383.467 1096.83 384.05 1098 384.75L1094.84 397.467C1093.43 396.689 1091.76 396.106 1089.81 395.717C1087.93 395.25 1086.14 395.017 1084.42 395.017C1081.53 395.017 1078.88 395.523 1076.46 396.534C1074.12 397.545 1072.05 398.906 1070.25 400.617C1068.54 402.328 1067.17 404.234 1066.16 406.334C1065.22 408.434 1064.75 410.65 1064.75 412.984V444.833H1052.58Z" fill="black"/>
</g>
<defs>
<filter id="filter0_d_41_1192" x="90" y="142.5" width="360.874" height="378.255" filterUnits="userSpaceOnUse" color-interpolation-filters="sRGB">
<feFlood flood-opacity="0" result="BackgroundImageFix"/>
<feColorMatrix in="SourceAlpha" type="matrix" values="0 0 0 0 0 0 0 0 0 0 0 0 0 0 0 0 0 0 127 0" result="hardAlpha"/>
<feOffset dx="-8" dy="8"/>
<feGaussianBlur stdDeviation="12.5"/>
<feComposite in2="hardAlpha" operator="out"/>
<feColorMatrix type="matrix" values="0 0 0 0 1 0 0 0 0 1 0 0 0 0 1 0 0 0 0.5 0"/>
<feBlend mode="normal" in2="BackgroundImageFix" result="effect1_dropShadow_41_1192"/>
<feBlend mode="normal" in="SourceGraphic" in2="effect1_dropShadow_41_1192" result="shape"/>
</filter>
<linearGradient id="paint0_linear_41_1192" x1="274.21" y1="228.599" x2="274.21" y2="326.55" gradientUnits="userSpaceOnUse">
<stop stop-color="#FFCC15"/>
<stop offset="1" stop-color="#DB950D"/>
</linearGradient>
<linearGradient id="paint1_linear_41_1192" x1="349.334" y1="483.332" x2="219.836" y2="363.056" gradientUnits="userSpaceOnUse">
<stop stop-color="#A4CAE3"/>
<stop offset="1" stop-color="#5BA5D3"/>
</linearGradient>
<linearGradient id="paint2_linear_41_1192" x1="141.579" y1="244.75" x2="170.783" y2="261.657" gradientUnits="userSpaceOnUse">
<stop stop-color="#DB950D"/>
<stop offset="1" stop-color="#FFCC15"/>
</linearGradient>
<linearGradient id="paint3_linear_41_1192" x1="193.662" y1="185.398" x2="211.338" y2="214.603" gradientUnits="userSpaceOnUse">
<stop stop-color="#DB950D"/>
<stop offset="1" stop-color="#FFCC15"/>
</linearGradient>
<linearGradient id="paint4_linear_41_1192" x1="271.213" y1="168.988" x2="270.444" y2="202.036" gradientUnits="userSpaceOnUse">
<stop stop-color="#DB950D"/>
<stop offset="1" stop-color="#FFCC15"/>
</linearGradient>
<linearGradient id="paint5_linear_41_1192" x1="349.665" y1="183.361" x2="332.757" y2="214.103" gradientUnits="userSpaceOnUse">
<stop stop-color="#DB950D"/>
<stop offset="1" stop-color="#FFCC15"/>
</linearGradient>
<linearGradient id="paint6_linear_41_1192" x1="403.655" y1="243.881" x2="373.682" y2="260.789" gradientUnits="userSpaceOnUse">
<stop stop-color="#DB950D"/>
<stop offset="1" stop-color="#FFCC15"/>
</linearGradient>
<clipPath id="clip0_41_1192">
<rect width="1220" height="656" fill="white"/>
</clipPath>
</defs>
</svg>
