<svg width="80" height="70" viewBox="0 0 80 70" fill="none" xmlns="http://www.w3.org/2000/svg">
<path d="M38.125 14.0624L36.25 11.9005L35.5938 11.1478C31.5313 6.47167 25.3906 4.29374 19.375 5.41474C11.0469 6.96811 5 14.3987 5 23.0784V23.6389C5 28.8115 7.09375 33.7439 10.7969 37.267L39.5312 64.6993C39.6563 64.8114 39.8281 64.8915 40 64.8915C40.1719 64.8915 40.3437 64.8274 40.4688 64.6993L69.2188 37.267C72.9063 33.7439 75 28.8115 75 23.6389V23.0784C75 14.3987 68.9531 6.96811 60.625 5.41474C54.6094 4.29374 48.4688 6.47167 44.4063 11.1478L43.75 11.9005L41.875 14.0624C41.4062 14.6069 40.7187 14.9272 40 14.9272C39.2813 14.9272 38.6094 14.6069 38.125 14.0624ZM43.5781 4.9183C48.5937 0.898732 55.1094 -0.814788 61.5156 0.370263C72.2188 2.37204 80 11.9325 80 23.0784V23.6389C80 29.404 77.9531 34.9449 74.2812 39.2527C73.75 39.8613 73.2031 40.4538 72.6094 41.0143L43.8594 68.4466C43.7344 68.5747 43.5938 68.6868 43.4531 68.7989C42.4688 69.5836 41.25 70 40 70C38.5625 70 37.1875 69.4395 36.125 68.4466L7.375 41.0303C6.78125 40.4698 6.23438 39.8773 5.70312 39.2688C2.04688 34.9449 0 29.404 0 23.6389V23.0784C0 11.9325 7.78125 2.37204 18.4844 0.370263C24.875 -0.814788 31.3906 0.882717 36.4062 4.9183C37.4531 5.76705 38.4375 6.69587 39.3281 7.73679L39.9844 8.48946L40.6406 7.73679C41.2969 6.98413 41.9844 6.2795 42.7187 5.63893C43 5.39872 43.2812 5.15851 43.5625 4.9183H43.5781Z" fill="#0E0C5E"/>
</svg>
