<svg width="24" height="22" viewBox="0 0 24 22" fill="none" xmlns="http://www.w3.org/2000/svg">
<path d="M11.4375 4.87132L10.875 4.23851L10.6781 4.01819C9.45938 2.64944 7.61719 2.01194 5.8125 2.34007C3.31406 2.79476 1.5 4.96976 1.5 7.51038V7.67444C1.5 9.18851 2.12812 10.6323 3.23906 11.6635L11.8594 19.6932C11.8969 19.726 11.9484 19.7494 12 19.7494C12.0516 19.7494 12.1031 19.7307 12.1406 19.6932L20.7656 11.6635C21.8719 10.6323 22.5 9.18851 22.5 7.67444V7.51038C22.5 4.96976 20.6859 2.79476 18.1875 2.34007C16.3828 2.01194 14.5406 2.64944 13.3219 4.01819L13.125 4.23851L12.5625 4.87132C12.4219 5.03069 12.2156 5.12444 12 5.12444C11.7844 5.12444 11.5828 5.03069 11.4375 4.87132ZM13.0734 2.19476C14.5781 1.01819 16.5328 0.516631 18.4547 0.863506C21.6656 1.44944 24 4.24788 24 7.51038V7.67444C24 9.36194 23.3859 10.9838 22.2844 12.2448C22.125 12.4229 21.9609 12.5963 21.7828 12.7604L13.1578 20.7901C13.1203 20.8276 13.0781 20.8604 13.0359 20.8932C12.7406 21.1229 12.375 21.2448 12 21.2448C11.5688 21.2448 11.1562 21.0807 10.8375 20.7901L2.2125 12.7651C2.03438 12.601 1.87031 12.4276 1.71094 12.2494C0.614063 10.9838 0 9.36194 0 7.67444V7.51038C0 4.24788 2.33438 1.44944 5.54531 0.863506C7.4625 0.516631 9.41719 1.01351 10.9219 2.19476C11.2359 2.44319 11.5312 2.71507 11.7984 3.01976L11.9953 3.24007L12.1922 3.01976C12.3891 2.79944 12.5953 2.59319 12.8156 2.40569C12.9 2.33538 12.9844 2.26507 13.0687 2.19476H13.0734Z" fill="#0E0C5E"/>
</svg>
