<svg width="24" height="24" viewBox="0 0 24 24" fill="none" xmlns="http://www.w3.org/2000/svg">
<path fill-rule="evenodd" clip-rule="evenodd" d="M19.3314 13.297C19.4565 12.6779 19.9918 12.2335 20.6129 12.2335H22.6918V11.7665H20.6118C19.9904 11.7665 19.4548 11.3216 19.3301 10.7019C19.1408 9.76049 18.8284 8.84756 18.4008 7.98659C18.1438 7.46908 18.2453 6.84173 18.6518 6.43547L20.097 4.9912L19.0092 3.90648L17.5287 5.3861C17.1332 5.78134 16.5359 5.88002 16.038 5.63238C15.1745 5.20306 14.258 4.88908 13.3117 4.6988C12.6987 4.57555 12.257 4.02833 12.257 3.39235V1.3317H11.743V3.39026C11.743 4.02626 11.3012 4.5735 10.6882 4.69673C9.74168 4.88703 8.82461 5.20103 7.96082 5.63038C7.46313 5.87777 6.86634 5.77933 6.47086 5.38461L4.99008 3.90662L3.90477 4.99194L5.3513 6.43757C5.75775 6.84376 5.8593 7.47099 5.60239 7.98847C5.17497 8.84943 4.86255 9.76221 4.67285 10.7034C4.54801 11.3229 4.01247 11.7676 3.3913 11.7676H1.30823V12.2346H3.38713C4.0083 12.2346 4.54384 12.6793 4.66867 13.2986C4.85838 14.2399 5.17079 15.1527 5.59821 16.0137C5.85504 16.5311 5.75363 17.158 5.34741 17.5643L3.90089 19.0108L4.98953 20.0956L6.46862 18.6156C6.86393 18.22 7.46122 18.121 7.95939 18.3684C8.82377 18.7977 9.74129 19.1117 10.6883 19.3023C11.3012 19.4256 11.743 19.9728 11.743 20.6087V22.6683H12.257V20.6139C12.257 19.9781 12.6986 19.4311 13.3112 19.3076C14.2577 19.1169 15.1745 18.8029 16.0383 18.3737C16.5361 18.1264 17.1329 18.225 17.5284 18.6199L19.01 20.0996L20.0943 19.0153L18.6481 17.5682C18.2418 17.1616 18.1407 16.5341 18.3981 16.0167C18.8272 15.1545 19.141 14.24 19.3314 13.297ZM2.77147 18.2734L4.4306 16.6143C3.95103 15.6483 3.60021 14.6235 3.38713 13.5663H1.04347C0.467184 13.5663 0 13.0991 0 12.5228V11.4793C0 10.903 0.467184 10.4359 1.04347 10.4359H3.3913C3.60438 9.37859 3.9552 8.35385 4.43477 7.38784L2.77566 5.72974C2.3683 5.32227 2.3683 4.66175 2.77566 4.25426L4.25217 2.77774C4.65964 2.37038 5.32017 2.37038 5.72765 2.77774L7.38678 4.43375C8.3526 3.95367 9.37739 3.60282 10.4348 3.39026V1.04348C10.4348 0.467172 10.902 0 11.4782 0H12.5217C13.0981 0 13.5653 0.467172 13.5653 1.04348V3.39235C14.6223 3.60491 15.6467 3.95575 16.6121 4.43583L18.2712 2.77774C18.6788 2.37038 19.3393 2.37038 19.7468 2.77774L21.2264 4.25322C21.6338 4.6607 21.6338 5.32122 21.2264 5.7287L19.5684 7.38575C20.0482 8.352 20.3991 9.37713 20.6118 10.4348H22.9564C23.5328 10.4348 24 10.902 24 11.4783V12.5217C24 13.0981 23.5328 13.5652 22.9564 13.5652H20.6129C20.3988 14.6245 20.0466 15.6511 19.5652 16.6185L21.2233 18.2776C21.6307 18.6851 21.6307 19.3456 21.2233 19.7531L19.7478 21.2286C19.3403 21.636 18.6798 21.636 18.2723 21.2286L16.6121 19.5705C15.6465 20.0502 14.6222 20.4011 13.5653 20.6139V22.9566C13.5653 23.5328 13.098 24 12.5217 24H11.4782C10.902 24 10.4348 23.5328 10.4348 22.9566V20.6087C9.3771 20.396 8.35197 20.0451 7.38573 19.5653L5.72763 21.2243C5.32016 21.6317 4.65964 21.6317 4.25217 21.2243L2.77147 19.749C2.36412 19.3415 2.36412 18.6809 2.77147 18.2734Z" fill="#0E0C5E"/>
<path fill-rule="evenodd" clip-rule="evenodd" d="M12 15.365C13.8929 15.365 15.3874 13.8368 15.3874 12.001C15.3874 10.1654 13.8929 8.63708 12 8.63708C10.1071 8.63708 8.6126 10.1654 8.6126 12.001C8.6126 13.8368 10.1071 15.365 12 15.365ZM16.6957 12.001C16.6957 14.5944 14.5933 16.6967 12 16.6967C9.40667 16.6967 7.30436 14.5944 7.30436 12.001C7.30436 9.40771 9.40667 7.30539 12 7.30539C14.5933 7.30539 16.6957 9.40771 16.6957 12.001Z" fill="#0E0C5E"/>
</svg>
